<svg xmlns="http://www.w3.org/2000/svg" style="display: none;">
    <symbol id="btn" viewBox="0 0 236 58">
        <path d="M106.5 3C107.328 3 108 2.32843 108 1.5C108 0.671573 107.328 0 106.5 0V1.5V3ZM235.561 47.5607C236.146 46.9749 236.146 46.0251 235.561 45.4393L226.015 35.8934C225.429 35.3076 224.479 35.3076 223.893 35.8934C223.308 36.4792 223.308 37.4289 223.893 38.0147L232.379 46.5L223.893 54.9853C223.308 55.5711 223.308 56.5208 223.893 57.1066C224.479 57.6924 225.429 57.6924 226.015 57.1066L235.561 47.5607ZM24 1.5V3H106.5V1.5V0H24V1.5ZM234.5 46.5V45H118V46.5V48H234.5V46.5ZM118 46.5V45H24V46.5V48H118V46.5ZM1.5 24H3C3 12.402 12.402 3 24 3V1.5V0C10.7452 0 0 10.7452 0 24H1.5ZM1.5 24H0C0 37.2548 10.7452 48 24 48V46.5V45C12.402 45 3 35.598 3 24H1.5Z" fill="#8A38CD"/>
    </symbol>

    <symbol id="croissant" viewBox="0 0 960 960">
        <path d="M534.765 702.868C505.724 702.949 478.103 696.768 451.82 684.671C445.931 681.96 441.195 682.81 435.563 685.772C397.412 705.838 357.045 711.13 314.963 702.16C305.766 700.199 299.996 702.524 293.091 709.296C229.197 780.544 86.2627 785.908 53.3687 682.354C24.5617 594.5 46.3087 518.948 112.09 456.272C122.689 422.453 140.772 393.509 167.561 370.232C171.139 367.123 171.955 364.789 170.281 360.275C160.425 326.961 186.113 294.344 212.192 276.682C223.249 269.093 234.931 262.139 247.05 256.421C330.296 218.605 428.86 169.291 517.132 219.909C520.132 221.492 524.949 222.341 527.816 221.06C561.735 205.906 596.328 205.222 631.407 215.735C655.652 223.001 677.711 234.752 698.09 249.78C759.203 267.281 819.84 283.881 869.499 326.621C935.955 371.69 944.088 489.972 848.854 503.252C825.071 503.734 824.343 504.466 816.912 526.613C802.201 556.925 778.164 576.111 745.253 582.187C682.726 597.359 706.015 693.791 534.765 702.868ZM215.521 344.052C283.999 338.141 346.379 370.518 389.708 422.195C435.14 481.552 461.68 555.58 467.501 629.837C467.553 631.736 470.044 634.098 471.983 635.324C540.618 671.338 635.335 646.503 670.074 574.195C673.902 566.633 677.874 560.253 671.898 552.147C665.536 514.077 658.761 475.804 643.73 439.691C602.089 344.481 509.757 225.036 393.27 252.596C338.304 270.827 248.152 294.737 215.521 344.052ZM167.725 449.332C250.374 461.077 287.906 569.448 305.637 639.737C306.691 643.898 307.854 645.953 312.432 646.588C320.253 647.673 327.949 649.682 335.685 651.363C353.791 657.495 408.694 649.193 415.887 631.531C402.39 537.093 363.311 425.478 261.413 398.146C219.846 384.226 185.9 414.192 167.725 449.332ZM169.6 707.948C200.706 707.66 227.891 697.497 250.806 676.132C256.244 671.062 259.994 666.436 254.745 658.947C236.251 609.354 226.478 552.565 185.072 515.705C93.7017 448.522 49.4857 718.292 169.6 707.948ZM721.275 535.095C752.023 534.858 776.606 515.441 775.594 486.066C772.441 476.678 767.694 467.708 765.51 458.133C745.768 364.405 679.552 249.764 570.073 256.903C658.871 329.967 706.305 423.674 721.275 535.095ZM768.215 324.683C790.941 362.03 802.034 403.429 814.77 444.746C820.003 463.766 855.988 444.486 864.853 435.788C871.137 430.36 873.6 423.982 870.693 416.855C856.703 369.304 811.074 341.959 768.215 324.683Z" fill="#000000"/>
        <path d="M215.52 344.053C247.933 294.83 338.483 270.77 393.263 252.6C509.812 225.021 602.008 344.497 643.734 439.684C658.752 475.801 665.544 514.082 671.894 552.148C677.872 560.254 673.899 566.634 670.073 574.193C635.398 646.535 540.57 671.322 471.981 635.329C470.042 634.099 467.552 631.738 467.496 629.839C461.676 555.586 435.143 481.549 389.71 422.195C346.37 370.515 284.006 338.146 215.52 344.053Z" fill="white"/>
        <path d="M167.727 449.332C185.894 414.218 219.846 384.181 261.416 398.148C363.325 425.497 402.378 537.077 415.888 631.532C408.79 649.209 353.583 657.475 335.688 651.364C327.951 649.683 320.255 647.674 312.434 646.589C307.856 645.954 306.693 643.898 305.638 639.74C287.904 569.485 250.415 461.092 167.727 449.332Z" fill="white"/>
        <path d="M169.598 707.948C74.8771 707.428 80.2111 565.238 132.302 514.634C200.308 464.171 239.362 615.23 254.742 658.946C259.992 666.436 256.242 671.062 250.804 676.132C227.889 697.497 200.704 707.66 169.598 707.948Z" fill="white"/>
        <path d="M721.273 535.095C706.303 423.674 658.868 329.967 570.07 256.902C679.571 249.786 745.743 364.381 765.507 458.13C767.691 467.707 772.439 476.677 775.59 486.065C776.595 515.455 752.028 534.829 721.273 535.095Z" fill="white"/>
        <path d="M768.215 324.684C811.072 341.958 856.705 369.307 870.693 416.856C873.6 423.982 871.138 430.361 864.854 435.788C856.037 444.508 819.95 463.735 814.771 444.748C802.033 403.428 790.942 362.033 768.215 324.684Z" fill="white"/>
    </symbol>

    <symbol id="instagram" viewBox="0 0 24 24">
        <path d="M12 7.90001C11.1891 7.90001 10.3964 8.14048 9.72218 8.59099C9.04794 9.0415 8.52243 9.68184 8.21211 10.431C7.90179 11.1802 7.8206 12.0046 7.9788 12.7999C8.13699 13.5952 8.52748 14.3258 9.10088 14.8992C9.67427 15.4725 10.4048 15.863 11.2001 16.0212C11.9955 16.1794 12.8198 16.0982 13.569 15.7879C14.3182 15.4776 14.9585 14.9521 15.409 14.2779C15.8596 13.6036 16.1 12.8109 16.1 12C16.1013 11.4612 15.9962 10.9275 15.7906 10.4295C15.585 9.93142 15.2831 9.47892 14.9021 9.09794C14.5211 8.71695 14.0686 8.415 13.5706 8.20942C13.0725 8.00385 12.5388 7.8987 12 7.90001ZM12 14.67C11.4719 14.67 10.9557 14.5134 10.5166 14.22C10.0776 13.9267 9.73534 13.5097 9.53326 13.0218C9.33117 12.5339 9.2783 11.9971 9.38132 11.4791C9.48434 10.9612 9.73863 10.4854 10.112 10.112C10.4854 9.73863 10.9612 9.48434 11.4791 9.38132C11.9971 9.2783 12.5339 9.33117 13.0218 9.53326C13.5097 9.73534 13.9267 10.0776 14.22 10.5166C14.5134 10.9557 14.67 11.4719 14.67 12C14.67 12.7081 14.3887 13.3873 13.888 13.888C13.3873 14.3887 12.7081 14.67 12 14.67ZM17.23 7.73001C17.23 7.9278 17.1714 8.12114 17.0615 8.28558C16.9516 8.45003 16.7954 8.57821 16.6127 8.65389C16.43 8.72958 16.2289 8.74938 16.0349 8.7108C15.8409 8.67221 15.6628 8.57697 15.5229 8.43712C15.3831 8.29727 15.2878 8.11909 15.2492 7.92511C15.2106 7.73112 15.2304 7.53006 15.3061 7.34733C15.3818 7.16461 15.51 7.00843 15.6744 6.89855C15.8389 6.78866 16.0322 6.73001 16.23 6.73001C16.4952 6.73001 16.7496 6.83537 16.9371 7.02291C17.1247 7.21044 17.23 7.4648 17.23 7.73001ZM19.94 8.73001C19.9691 7.48684 19.5054 6.28261 18.65 5.38001C17.7522 4.5137 16.5474 4.03897 15.3 4.06001C14 4.00001 10 4.00001 8.70001 4.06001C7.45722 4.0331 6.25379 4.49652 5.35001 5.35001C4.49465 6.25261 4.03093 7.45684 4.06001 8.70001C4.00001 10 4.00001 14 4.06001 15.3C4.03093 16.5432 4.49465 17.7474 5.35001 18.65C6.25379 19.5035 7.45722 19.9669 8.70001 19.94C10.02 20.02 13.98 20.02 15.3 19.94C16.5432 19.9691 17.7474 19.5054 18.65 18.65C19.5054 17.7474 19.9691 16.5432 19.94 15.3C20 14 20 10 19.94 8.70001V8.73001ZM18.24 16.73C18.1042 17.074 17.8993 17.3863 17.6378 17.6478C17.3763 17.9093 17.064 18.1142 16.72 18.25C15.1676 18.5639 13.5806 18.6715 12 18.57C10.4228 18.6716 8.83902 18.564 7.29001 18.25C6.94608 18.1142 6.63369 17.9093 6.37223 17.6478C6.11076 17.3863 5.90579 17.074 5.77001 16.73C5.35001 15.67 5.44001 13.17 5.44001 12.01C5.44001 10.85 5.35001 8.34001 5.77001 7.29001C5.90196 6.94268 6.10547 6.62698 6.36733 6.36339C6.62919 6.09981 6.94355 5.89423 7.29001 5.76001C8.83902 5.44599 10.4228 5.33839 12 5.44001C13.5806 5.33856 15.1676 5.44616 16.72 5.76001C17.064 5.89579 17.3763 6.10076 17.6378 6.36223C17.8993 6.62369 18.1042 6.93608 18.24 7.28001C18.66 8.34001 18.56 10.84 18.56 12C18.56 13.16 18.66 15.67 18.24 16.72V16.73Z" fill="currentColor"/>
    </symbol>

    <symbol id="receipt" viewBox="0 0 24 24">
        <path d="M17 13.0001H21V19.0001C21 20.1047 20.1046 21.0001 19 21.0001M17 13.0001V19.0001C17 20.1047 17.8954 21.0001 19 21.0001M17 13.0001V5.75719C17 4.8518 17 4.3991 16.8098 4.13658C16.6439 3.90758 16.3888 3.75953 16.1076 3.72909C15.7853 3.6942 15.3923 3.9188 14.6062 4.368L14.2938 4.54649C14.0045 4.71183 13.8598 4.7945 13.7062 4.82687C13.5702 4.85551 13.4298 4.85551 13.2938 4.82687C13.1402 4.7945 12.9955 4.71183 12.7062 4.54649L10.7938 3.45372C10.5045 3.28838 10.3598 3.20571 10.2062 3.17334C10.0702 3.14469 9.92978 3.14469 9.79383 3.17334C9.64019 3.20571 9.49552 3.28838 9.20618 3.45372L7.29382 4.54649C7.00448 4.71183 6.85981 4.7945 6.70617 4.82687C6.57022 4.85551 6.42978 4.85551 6.29383 4.82687C6.14019 4.7945 5.99552 4.71183 5.70618 4.54649L5.39382 4.368C4.60772 3.9188 4.21467 3.6942 3.89237 3.72909C3.61123 3.75953 3.35611 3.90758 3.1902 4.13658C3 4.3991 3 4.8518 3 5.75719V16.2001C3 17.8803 3 18.7203 3.32698 19.3621C3.6146 19.9266 4.07354 20.3855 4.63803 20.6731C5.27976 21.0001 6.11984 21.0001 7.8 21.0001H19M7 13.0001H9M7 9.0001H13M7 17.0001H9M13 17.0001H13.01M13 13.0001H13.01" stroke="currentColor" stroke-width="2" stroke-linecap="round" stroke-linejoin="round"/>
    </symbol>

    <symbol id="viber" viewBox="0 0 24 24">
       <path d="M12.743 13.455s.356.03.547-.206l.374-.47c.18-.232.614-.38 1.04-.144a11.005 11.005 0 0 1 .928.593c.282.207.86.69.862.69.276.233.34.574.152.934l-.002.008a3.896 3.896 0 0 1-.777.957l-.007.005q-.401.335-.789.381a.522.522 0 0 1-.115.008 1.05 1.05 0 0 1-.335-.052l-.009-.012c-.398-.113-1.062-.394-2.169-1.004a12.917 12.917 0 0 1-1.822-1.204 9.553 9.553 0 0 1-.82-.727l-.027-.027-.028-.028-.028-.027-.027-.028a9.553 9.553 0 0 1-.727-.82A12.93 12.93 0 0 1 7.76 10.46c-.61-1.107-.891-1.77-1.004-2.17l-.012-.008a1.05 1.05 0 0 1-.051-.335.506.506 0 0 1 .007-.115q.048-.387.382-.79l.005-.007a3.888 3.888 0 0 1 .957-.777l.007-.001c.36-.188.702-.124.934.15.002.001.484.58.69.862a11.005 11.005 0 0 1 .593.929c.237.425.089.86-.144 1.04l-.47.373c-.237.192-.206.548-.206.548s.696 2.633 3.295 3.296zm-.878-7.875a.253.253 0 0 0-.256.252.253.253 0 0 0 .252.254c1.353.01 2.454.447 3.356 1.326.894.872 1.351 2.057 1.363 3.611a.253.253 0 0 0 .254.252.253.253 0 0 0 .252-.255c-.013-1.654-.517-2.996-1.516-3.97-.99-.965-2.242-1.46-3.705-1.47Zm.463 1.313a.253.253 0 0 0-.271.234.253.253 0 0 0 .234.271c.966.071 1.682.387 2.205.957.524.573.773 1.27.754 2.141a.253.253 0 0 0 .248.258.253.253 0 0 0 .258-.246c.021-.978-.276-1.827-.887-2.494-.617-.674-1.48-1.044-2.54-1.121Zm.379 1.357a.253.253 0 0 0-.266.24.253.253 0 0 0 .239.266c.436.023.73.146.93.351.198.206.32.516.343.971a.253.253 0 0 0 .264.24.253.253 0 0 0 .24-.263c-.027-.537-.18-.984-.484-1.3-.305-.314-.743-.478-1.266-.505Zm6.636-4.3c-.497-.458-2.506-1.916-6.98-1.936 0 0-5.275-.318-7.847 2.041-1.431 1.432-1.935 3.527-1.988 6.125-.053 2.597-.122 7.465 4.57 8.785h.005L7.1 20.98s-.03.815.507.981c.65.202 1.03-.418 1.65-1.086.341-.367.811-.905 1.165-1.317 3.21.27 5.678-.347 5.958-.439.648-.21 4.315-.68 4.91-5.547.616-5.017-.297-8.19-1.947-9.621Zm.544 9.262c-.504 4.064-3.478 4.32-4.026 4.496-.233.075-2.401.614-5.127.436 0 0-2.031 2.45-2.666 3.088-.099.1-.215.14-.293.12-.11-.027-.14-.156-.138-.345l.017-3.347s-.002 0 0 0c-3.97-1.102-3.738-5.246-3.693-7.415.045-2.17.453-3.947 1.664-5.143C7.8 3.132 12.28 3.426 12.28 3.426c3.784.017 5.598 1.157 6.018 1.538 1.396 1.196 2.108 4.056 1.588 8.247z"  style="fill:#ffffff;stroke-width:.0300125"></path>
    </symbol>

    <symbol id="wiFi" viewBox="-1.5 0 19 19">
    <path d="M14.897 7.404a.553.553 0 0 1-.392-.163 9.192 9.192 0 0 0-13.01 0 .554.554 0 1 1-.784-.783 10.3 10.3 0 0 1 14.578 0 .554.554 0 0 1-.392.946zm-2.172 2.172a.553.553 0 0 1-.392-.162 6.127 6.127 0 0 0-8.666 0 .554.554 0 0 1-.784-.784 7.23 7.23 0 0 1 10.233 0 .554.554 0 0 1-.391.946zm-2.173 2.173a.553.553 0 0 1-.392-.162 3.054 3.054 0 0 0-4.32 0 .554.554 0 1 1-.784-.784 4.163 4.163 0 0 1 5.888 0 .554.554 0 0 1-.392.946zm-1.141 2.048a1.403 1.403 0 1 1-1.403-1.403 1.403 1.403 0 0 1 1.403 1.403z"  fill="currentColor"/>
    </symbol>

</svg>