<svg width="236" height="58" viewBox="0 0 236 58" fill="none" xmlns="http://www.w3.org/2000/svg">
<path d="M106.5 3C107.328 3 108 2.32843 108 1.5C108 0.671573 107.328 0 106.5 0V1.5V3ZM235.561 47.5607C236.146 46.9749 236.146 46.0251 235.561 45.4393L226.015 35.8934C225.429 35.3076 224.479 35.3076 223.893 35.8934C223.308 36.4792 223.308 37.4289 223.893 38.0147L232.379 46.5L223.893 54.9853C223.308 55.5711 223.308 56.5208 223.893 57.1066C224.479 57.6924 225.429 57.6924 226.015 57.1066L235.561 47.5607ZM24 1.5V3H106.5V1.5V0H24V1.5ZM234.5 46.5V45H118V46.5V48H234.5V46.5ZM118 46.5V45H24V46.5V48H118V46.5ZM1.5 24H3C3 12.402 12.402 3 24 3V1.5V0C10.7452 0 0 10.7452 0 24H1.5ZM1.5 24H0C0 37.2548 10.7452 48 24 48V46.5V45C12.402 45 3 35.598 3 24H1.5Z" fill="#8A38CD"/>
</svg>
